<svg xmlns="http://www.w3.org/2000/svg" version="1.1" xmlns:xlink="http://www.w3.org/1999/xlink" xmlns:svgjs="http://svgjs.dev/svgjs" width="1500" height="1500" viewBox="0 0 1500 1500"><rect width="1500" height="1500" fill="#000000"></rect><g transform="matrix(0.6666666666666666,0,0,0.6666666666666666,249.39393939393943,622.9229619686192)"><svg viewBox="0 0 396 101" data-background-color="#ffffff" preserveAspectRatio="xMidYMid meet" height="382" width="1500" xmlns="http://www.w3.org/2000/svg" xmlns:xlink="http://www.w3.org/1999/xlink"><g id="tight-bounds" transform="matrix(1,0,0,1,0.2400000000000091,-0.10164591163825776)"><svg viewBox="0 0 395.52 101.20329182327652" height="101.20329182327652" width="395.52"><g><svg viewBox="0 0 603.4517500840842 154.4076243047798" height="101.20329182327652" width="395.52"><g transform="matrix(1,0,0,1,207.93175008408426,21.339982809126596)"><svg viewBox="0 0 395.52 111.72765868652661" height="111.72765868652661" width="395.52"><g id="textblocktransform"><svg viewBox="0 0 395.52 111.72765868652661" height="111.72765868652661" width="395.52" id="textblock"><g><svg viewBox="0 0 395.52 75.16721769499418" height="75.16721769499418" width="395.52"><g transform="matrix(1,0,0,1,0,0)"><svg width="395.52" viewBox="2.1 -32.3 171.79 32.65" height="75.16721769499418" data-palette-color="#000000"><path d="M13.35-32.3Q16.8-32.3 20.5-30.8L20.5-30.8 19.85-26.95 19.15-26.75Q17.7-27.85 16.07-28.45 14.45-29.05 12.85-29.05L12.85-29.05Q11-29.05 9.63-28.3 8.25-27.55 7.53-26.35 6.8-25.15 6.8-23.85L6.8-23.85Q6.8-22.5 7.63-21.48 8.45-20.45 9.7-19.7 10.95-18.95 13.1-17.9L13.1-17.9Q15.8-16.65 17.45-15.58 19.1-14.5 20.28-12.85 21.45-11.2 21.45-8.85L21.45-8.85Q21.45-6.35 20.1-4.25 18.75-2.15 16.3-0.9 13.85 0.35 10.7 0.35L10.7 0.35Q8.6 0.35 6.33-0.23 4.05-0.8 2.1-1.9L2.1-1.9 2.6-6 3.15-6.25Q4.9-4.55 7.03-3.73 9.15-2.9 11.1-2.9L11.1-2.9Q13-2.9 14.48-3.65 15.95-4.4 16.73-5.65 17.5-6.9 17.5-8.3L17.5-8.3Q17.5-10.4 15.9-11.68 14.3-12.95 11.05-14.45L11.05-14.45Q8.4-15.75 6.8-16.78 5.2-17.8 4.05-19.43 2.9-21.05 2.9-23.4L2.9-23.4Q2.9-25.85 4.23-27.9 5.55-29.95 7.93-31.13 10.3-32.3 13.35-32.3L13.35-32.3ZM42.85-24.9L43.05-24.6 42.8-21.45 38.15-21.8 35.65-21.8 35.5-7.8 35.65 0 31.9 0 32.05-7.5 31.95-21.8 29.45-21.8 24.7-21.45 24.4-21.8 24.7-24.9 42.85-24.9ZM60.6-10.05Q63.65-5.4 67.34-0.9L67.34-0.9 67.3-0.4Q65.2 0.25 63.85 0.35L63.85 0.35 63.2-0.05Q59.4-5.8 57.45-9.1L57.45-9.1 52.75-9.05 52.75-7.8 52.85 0 49.15 0 49.3-7.5 49.15-24.9 57.65-24.95Q61.59-24.95 63.72-23.1 65.84-21.25 65.84-17.75L65.84-17.75Q65.84-15.2 64.47-13.2 63.09-11.2 60.6-10.05L60.6-10.05ZM52.85-21.9L52.8-12.15 57.5-12Q61.95-13.25 61.95-17.45L61.95-17.45Q61.95-19.65 60.65-20.75 59.35-21.85 56.7-21.95L56.7-21.95 52.85-21.9ZM84.59-24.9L93.34 0 89.59 0 88.99-2.7 87.69-6.4 81.74-6.45 76.44-6.4 75.09-2.9 74.39 0 70.69 0 80.29-24.9 84.59-24.9ZM82.04-9.4L86.64-9.45 82.49-21.25 82.19-21.25 77.64-9.45 82.04-9.4ZM120.34-25L120.19-7.45 120.24 0 116.24 0 103.14-19 102.89-19 102.84-8.3 102.94 0 99.54 0 99.69-7.35 99.59-24.9 103.54-24.9 116.64-5.9 116.99-5.9 116.89-24.75 120.34-25ZM139.09-25.1Q144.79-25.1 147.81-22.05 150.84-19 150.84-13.3L150.84-13.3Q150.84-6.75 147.54-3.25 144.24 0.25 138.09 0.25L138.09 0.25Q136.34 0.25 133.91 0.18 131.49 0.1 129.34 0L129.34 0 129.49-7.5 129.34-24.9 139.09-25.1ZM138.69-2.8Q142.69-2.8 144.86-5.23 147.04-7.65 147.04-12.55L147.04-12.55Q147.04-17.35 144.99-19.65 142.94-21.95 138.79-21.95L138.79-21.95Q136.34-21.95 133.04-21.75L133.04-21.75 132.94-7.8 132.99-3.1Q134.44-3 136.04-2.9 137.64-2.8 138.69-2.8L138.69-2.8ZM164.64-8.7L164.59-7.15 164.74 0 160.99 0 161.19-7.15 161.14-8.7 152.69-24.9 156.79-24.9 157.29-23.45 162.89-12.75 163.14-12.75 169.24-23.3 169.89-24.9 173.89-24.9 164.64-8.7Z" opacity="1" transform="matrix(1,0,0,1,0,0)" fill="#ffffff" class="wordmark-text-0" data-fill-palette-color="primary" id="text-0"></path></svg></g></svg></g><g transform="matrix(1,0,0,1,0,92.91239377955762)"><svg viewBox="0 0 232.209792 18.81526490696899" height="18.81526490696899" width="232.209792"><g transform="matrix(1,0,0,1,0,0)"><svg width="232.209792" viewBox="4.5 -37 599.74 48.6" height="18.81526490696899" data-palette-color="#106f8b"><path d="M25.5 0L4.5 0 4.5-35 25.5-35 25.5-30.9 9.25-30.9 9.25-20.25 23.25-20.25 23.25-16.25 9.25-16.25 9.25-4.1 25.5-4.1 25.5 0ZM41.9 0L37.2 0 26.75-24.8 30.85-26.5 39.7-5.1 48.55-26.5 52.4-24.8 41.9 0ZM66.3 0.6L66.3 0.6Q60.7 0.6 57.42-2.98 54.15-6.55 54.15-13L54.15-13Q54.15-16.9 55.62-19.98 57.1-23.05 59.75-24.83 62.4-26.6 65.9-26.6L65.9-26.6Q69.65-26.6 72.12-24.98 74.59-23.35 75.84-20.6 77.09-17.85 77.09-14.55L77.09-14.55Q77.09-12.8 76.95-11.15L76.95-11.15 58.75-11.15Q59.2-7.5 61.3-5.45 63.4-3.4 66.84-3.4L66.84-3.4Q69.09-3.4 70.9-3.88 72.7-4.35 74.34-5.1L74.34-5.1 75.4-1.25Q73.59-0.45 71.34 0.08 69.09 0.6 66.3 0.6ZM58.7-14.8L58.7-14.8 72.95-14.8Q72.95-18.6 71.05-20.65 69.15-22.7 65.8-22.7L65.8-22.7Q62.9-22.7 61-20.68 59.1-18.65 58.7-14.8ZM87.59 0L83.09 0 83.09-26 87.44-26 87.44-20.35Q88.09-22 89.19-23.43 90.29-24.85 91.94-25.73 93.59-26.6 95.79-26.6L95.79-26.6Q96.54-26.6 97.29-26.53 98.04-26.45 98.54-26.3L98.54-26.3 97.19-21.65Q96.24-22.05 94.94-22.05L94.94-22.05Q93.09-22.05 91.42-21 89.74-19.95 88.67-17.75 87.59-15.55 87.59-12.15L87.59-12.15 87.59 0ZM103.69 11.6L103.69 11.6Q102.19 11.6 101.07 11.3 99.94 11 99.29 10.6L99.29 10.6 100.29 6.85Q100.89 7.2 101.79 7.45 102.69 7.7 103.79 7.7L103.79 7.7Q105.89 7.7 107.54 6.35 109.19 5 110.69 1.05L110.69 1.05 111.84-1.95 109.44-1.95 99.29-24.8 103.29-26.6 112.99-4.95 120.54-26.4 124.69-24.8 115.14 1.3Q113.69 5.3 111.99 7.55 110.29 9.8 108.24 10.7 106.19 11.6 103.69 11.6ZM153.38 0.6L153.38 0.6Q149.74 0.6 146.74-0.38 143.74-1.35 141.69-2.95L141.69-2.95 144.09-6.95Q145.88-5.45 148.13-4.5 150.38-3.55 153.38-3.55L153.38-3.55Q156.99-3.55 159.09-5.05 161.19-6.55 161.19-9.1L161.19-9.1Q161.19-10.55 160.59-11.68 159.99-12.8 158.26-13.88 156.53-14.95 153.19-16.2L153.19-16.2Q149.59-17.6 147.44-19.03 145.28-20.45 144.36-22.28 143.44-24.1 143.44-26.6L143.44-26.6Q143.44-29.1 144.81-31.13 146.19-33.15 148.86-34.38 151.53-35.6 155.34-35.6L155.34-35.6Q158.44-35.6 160.91-34.98 163.38-34.35 165.74-33.2L165.74-33.2 163.99-29.15Q162.28-30.15 160.01-30.83 157.74-31.5 155.24-31.5L155.24-31.5Q151.94-31.5 150.03-30.2 148.13-28.9 148.13-26.85L148.13-26.85Q148.13-25.55 148.69-24.55 149.24-23.55 150.86-22.6 152.49-21.65 155.74-20.45L155.74-20.45Q159.63-19 161.91-17.4 164.19-15.8 165.13-13.93 166.09-12.05 166.09-9.65L166.09-9.65Q166.09-6.4 164.46-4.1 162.84-1.8 159.96-0.6 157.09 0.6 153.38 0.6ZM181.68 0.6L181.68 0.6Q177.93 0.6 175.76-1.88 173.58-4.35 173.58-8.95L173.58-8.95 173.58-21.15 169.08-21.15 169.08-25.05 173.68-25.05 174.63-33.25 178.08-33.25 178.08-25.05 185.28-25.05 185.28-21.15 178.08-21.15 178.08-8.6Q178.08-5.7 179.31-4.55 180.53-3.4 182.23-3.4L182.23-3.4Q183.48-3.4 184.61-3.8 185.73-4.2 186.68-4.75L186.68-4.75 187.93-1.15Q186.93-0.55 185.23 0.03 183.53 0.6 181.68 0.6ZM196.93 0L192.43 0 192.43-26 196.78-26 196.78-20.35Q197.43-22 198.53-23.43 199.63-24.85 201.28-25.73 202.93-26.6 205.13-26.6L205.13-26.6Q205.88-26.6 206.63-26.53 207.38-26.45 207.88-26.3L207.88-26.3 206.53-21.65Q205.58-22.05 204.28-22.05L204.28-22.05Q202.43-22.05 200.75-21 199.08-19.95 198-17.75 196.93-15.55 196.93-12.15L196.93-12.15 196.93 0ZM220.83 0.6L220.83 0.6Q217.58 0.6 214.93-1.05 212.28-2.7 210.7-5.73 209.13-8.75 209.13-12.85L209.13-12.85Q209.13-16.75 210.7-19.85 212.28-22.95 215.05-24.78 217.83-26.6 221.43-26.6L221.43-26.6Q223.68-26.6 225.5-25.83 227.33-25.05 228.68-23.9L228.68-23.9 228.68-26 232.78-26 232.78-6.3Q232.78-4.4 233.7-3.83 234.63-3.25 235.73-3.25L235.73-3.25 234.78 0.25Q229.98 0.25 228.98-3.65L228.98-3.65Q227.83-2.05 225.85-0.73 223.88 0.6 220.83 0.6ZM221.83-3.4L221.83-3.4Q223.73-3.4 225.43-4.33 227.13-5.25 228.28-6.65L228.28-6.65 228.28-20.6Q226.93-21.55 225.3-22.13 223.68-22.7 221.88-22.7L221.88-22.7Q219.48-22.7 217.65-21.48 215.83-20.25 214.78-18.07 213.73-15.9 213.73-13L213.73-13Q213.73-10.2 214.78-8.03 215.83-5.85 217.68-4.63 219.53-3.4 221.83-3.4ZM246.22 0L241.72 0 241.72-26 246.07-26 246.07-21.65Q247.47-23.75 249.65-25.18 251.82-26.6 254.82-26.6L254.82-26.6Q259.23-26.6 261.4-23.95 263.57-21.3 263.57-16.95L263.57-16.95 263.57 0 259.07 0 259.07-16.45Q259.07-19.25 257.75-20.95 256.43-22.65 254.07-22.65L254.07-22.65Q251.78-22.65 249.72-21.03 247.67-19.4 246.22-17.2L246.22-17.2 246.22 0ZM281.17 0.6L281.17 0.6Q277.97 0.6 275.32-1.05 272.67-2.7 271.12-5.73 269.57-8.75 269.57-12.85L269.57-12.85Q269.57-16.8 271.15-19.9 272.72-23 275.35-24.8 277.97-26.6 281.12-26.6L281.12-26.6Q283.72-26.6 285.6-25.55 287.47-24.5 288.52-23.4L288.52-23.4 288.52-37 293.02-37 293.02-6.3Q293.02-4.4 293.95-3.83 294.87-3.25 295.97-3.25L295.97-3.25 295.02 0.25Q290.27 0.25 289.22-3.55L289.22-3.55Q288.12-2 286.15-0.7 284.17 0.6 281.17 0.6ZM282.17-3.4L282.17-3.4Q284.02-3.4 285.7-4.28 287.37-5.15 288.52-6.55L288.52-6.55 288.52-19.45Q287.57-20.65 285.87-21.68 284.17-22.7 282.12-22.7L282.12-22.7Q279.72-22.7 277.92-21.4 276.12-20.1 275.15-17.93 274.17-15.75 274.17-13L274.17-13Q274.17-10.25 275.22-8.08 276.27-5.9 278.1-4.65 279.92-3.4 282.17-3.4ZM328.97 0L324.22 0 324.22-30.8 313.47-30.8 313.47-35 339.72-35 339.72-30.8 328.97-30.8 328.97 0ZM350.36 0.6L350.36 0.6Q344.76 0.6 341.49-2.98 338.21-6.55 338.21-13L338.21-13Q338.21-16.9 339.69-19.98 341.16-23.05 343.81-24.83 346.46-26.6 349.96-26.6L349.96-26.6Q353.71-26.6 356.19-24.98 358.66-23.35 359.91-20.6 361.16-17.85 361.16-14.55L361.16-14.55Q361.16-12.8 361.01-11.15L361.01-11.15 342.81-11.15Q343.26-7.5 345.36-5.45 347.46-3.4 350.91-3.4L350.91-3.4Q353.16-3.4 354.96-3.88 356.76-4.35 358.41-5.1L358.41-5.1 359.46-1.25Q357.66-0.45 355.41 0.08 353.16 0.6 350.36 0.6ZM342.76-14.8L342.76-14.8 357.01-14.8Q357.01-18.6 355.11-20.65 353.21-22.7 349.86-22.7L349.86-22.7Q346.96-22.7 345.06-20.68 343.16-18.65 342.76-14.8ZM375.06 0.6L375.06 0.6Q372.76 0.6 370.91-0.28 369.06-1.15 367.99-3.1 366.91-5.05 366.91-8.15L366.91-8.15 366.91-37 371.41-37 371.41-8.6Q371.41-5.9 372.54-4.6 373.66-3.3 375.66-3.3L375.66-3.3Q376.61-3.3 377.54-3.53 378.46-3.75 379.11-4.05L379.11-4.05 380.21-0.4Q379.31 0 377.99 0.3 376.66 0.6 375.06 0.6ZM391.86 0.6L391.86 0.6Q389.56 0.6 387.71-0.28 385.86-1.15 384.78-3.1 383.71-5.05 383.71-8.15L383.71-8.15 383.71-37 388.21-37 388.21-8.6Q388.21-5.9 389.33-4.6 390.46-3.3 392.46-3.3L392.46-3.3Q393.41-3.3 394.33-3.53 395.26-3.75 395.91-4.05L395.91-4.05 397.01-0.4Q396.11 0 394.78 0.3 393.46 0.6 391.86 0.6ZM408.26 0.6L408.26 0.6Q405.31 0.6 402.93-0.15 400.56-0.9 399.01-2.1L399.01-2.1 400.91-5.85Q402.21-4.75 404.18-4.03 406.16-3.3 408.41-3.3L408.41-3.3Q411.21-3.3 412.63-4.23 414.06-5.15 414.06-6.6L414.06-6.6Q414.06-7.65 413.53-8.45 413.01-9.25 411.61-10.03 410.21-10.8 407.56-11.7L407.56-11.7Q403.91-12.95 402.08-14.68 400.26-16.4 400.26-19.45L400.26-19.45Q400.26-22.45 402.88-24.53 405.51-26.6 410.16-26.6L410.16-26.6Q412.66-26.6 414.61-26.08 416.56-25.55 418.11-24.75L418.11-24.75 416.86-21.05Q415.51-21.85 413.78-22.35 412.06-22.85 409.96-22.85L409.96-22.85Q407.36-22.85 406.01-21.8 404.66-20.75 404.66-19.5L404.66-19.5Q404.66-18.3 405.71-17.45 406.76-16.6 409.81-15.6L409.81-15.6Q414.76-13.95 416.71-11.95 418.66-9.95 418.66-6.95L418.66-6.95Q418.66-3.45 415.83-1.43 413.01 0.6 408.26 0.6ZM449.6 0.6L449.6 0.6Q446.35 0.6 443.7-1.05 441.05-2.7 439.48-5.73 437.9-8.75 437.9-12.85L437.9-12.85Q437.9-16.75 439.48-19.85 441.05-22.95 443.83-24.78 446.6-26.6 450.2-26.6L450.2-26.6Q452.45-26.6 454.28-25.83 456.1-25.05 457.45-23.9L457.45-23.9 457.45-26 461.55-26 461.55-6.3Q461.55-4.4 462.48-3.83 463.4-3.25 464.5-3.25L464.5-3.25 463.55 0.25Q458.75 0.25 457.75-3.65L457.75-3.65Q456.6-2.05 454.63-0.73 452.65 0.6 449.6 0.6ZM450.6-3.4L450.6-3.4Q452.5-3.4 454.2-4.33 455.9-5.25 457.05-6.65L457.05-6.65 457.05-20.6Q455.7-21.55 454.08-22.13 452.45-22.7 450.65-22.7L450.65-22.7Q448.25-22.7 446.43-21.48 444.6-20.25 443.55-18.07 442.5-15.9 442.5-13L442.5-13Q442.5-10.2 443.55-8.03 444.6-5.85 446.45-4.63 448.3-3.4 450.6-3.4ZM494.7 0.6L494.7 0.6Q491.05 0.6 488.05-0.38 485.05-1.35 483-2.95L483-2.95 485.4-6.95Q487.2-5.45 489.45-4.5 491.7-3.55 494.7-3.55L494.7-3.55Q498.3-3.55 500.4-5.05 502.5-6.55 502.5-9.1L502.5-9.1Q502.5-10.55 501.9-11.68 501.3-12.8 499.57-13.88 497.85-14.95 494.5-16.2L494.5-16.2Q490.9-17.6 488.75-19.03 486.6-20.45 485.67-22.28 484.75-24.1 484.75-26.6L484.75-26.6Q484.75-29.1 486.12-31.13 487.5-33.15 490.17-34.38 492.85-35.6 496.65-35.6L496.65-35.6Q499.75-35.6 502.22-34.98 504.7-34.35 507.05-33.2L507.05-33.2 505.3-29.15Q503.6-30.15 501.32-30.83 499.05-31.5 496.55-31.5L496.55-31.5Q493.25-31.5 491.35-30.2 489.45-28.9 489.45-26.85L489.45-26.85Q489.45-25.55 490-24.55 490.55-23.55 492.17-22.6 493.8-21.65 497.05-20.45L497.05-20.45Q500.95-19 503.22-17.4 505.5-15.8 506.45-13.93 507.4-12.05 507.4-9.65L507.4-9.65Q507.4-6.4 505.77-4.1 504.15-1.8 501.27-0.6 498.4 0.6 494.7 0.6ZM523 0.6L523 0.6Q519.25 0.6 517.07-1.88 514.89-4.35 514.89-8.95L514.89-8.95 514.89-21.15 510.39-21.15 510.39-25.05 515-25.05 515.94-33.25 519.39-33.25 519.39-25.05 526.6-25.05 526.6-21.15 519.39-21.15 519.39-8.6Q519.39-5.7 520.62-4.55 521.85-3.4 523.54-3.4L523.54-3.4Q524.79-3.4 525.92-3.8 527.04-4.2 528-4.75L528-4.75 529.25-1.15Q528.25-0.55 526.54 0.03 524.85 0.6 523 0.6ZM543.69 0.6L543.69 0.6Q539.99 0.6 537.04-1.13 534.09-2.85 532.42-5.93 530.74-9 530.74-13L530.74-13Q530.74-17.2 532.44-20.25 534.14-23.3 537.09-24.95 540.04-26.6 543.69-26.6L543.69-26.6Q547.34-26.6 550.27-24.95 553.19-23.3 554.92-20.28 556.64-17.25 556.64-13.1L556.64-13.1Q556.64-8.95 554.94-5.88 553.24-2.8 550.32-1.1 547.39 0.6 543.69 0.6ZM543.69-3.4L543.69-3.4Q547.64-3.4 549.84-6.08 552.04-8.75 552.04-13L552.04-13Q552.04-15.6 550.94-17.78 549.84-19.95 547.97-21.28 546.09-22.6 543.69-22.6L543.69-22.6Q539.74-22.6 537.54-20 535.34-17.4 535.34-13.1L535.34-13.1Q535.34-10.5 536.44-8.28 537.54-6.05 539.42-4.73 541.29-3.4 543.69-3.4ZM567.14 0L562.64 0 562.64-26 566.99-26 566.99-20.35Q567.64-22 568.74-23.43 569.84-24.85 571.49-25.73 573.14-26.6 575.34-26.6L575.34-26.6Q576.09-26.6 576.84-26.53 577.59-26.45 578.09-26.3L578.09-26.3 576.74-21.65Q575.79-22.05 574.49-22.05L574.49-22.05Q572.64-22.05 570.96-21 569.29-19.95 568.21-17.75 567.14-15.55 567.14-12.15L567.14-12.15 567.14 0ZM583.24 11.6L583.24 11.6Q581.74 11.6 580.61 11.3 579.49 11 578.84 10.6L578.84 10.6 579.84 6.85Q580.44 7.2 581.34 7.45 582.24 7.7 583.34 7.7L583.34 7.7Q585.44 7.7 587.09 6.35 588.74 5 590.24 1.05L590.24 1.05 591.39-1.95 588.99-1.95 578.84-24.8 582.84-26.6 592.54-4.95 600.09-26.4 604.24-24.8 594.69 1.3Q593.24 5.3 591.54 7.55 589.84 9.8 587.79 10.7 585.74 11.6 583.24 11.6Z" opacity="1" transform="matrix(1,0,0,1,0,0)" fill="#ffffff" class="slogan-text-1" data-fill-palette-color="secondary" id="text-1"></path></svg></g></svg></g></svg></g></svg></g><g><svg viewBox="0 0 190.18657399952082 154.4076243047798" height="154.4076243047798" width="190.18657399952082"><g><svg xmlns="http://www.w3.org/2000/svg" xmlns:xlink="http://www.w3.org/1999/xlink" version="1.1" x="0" y="0" viewBox="5.029000000000011 12.639000000000001 89.92399999999999 73.007" enable-background="new 0 0 100 100" xml:space="preserve" height="154.4076243047798" width="190.18657399952082" class="icon-icon-0" data-fill-palette-color="accent" id="icon-0"><path fill="#ffffff" d="M74.902 65.634l20.051-11.192-14.17-0.853 8.146-7.297-18.137 1.417c0 0-0.389-2.868-4.109-6.589-2.267-2.267-7.367-3.755-7.367-3.755s0.726-9.244-4.446-17.463c-3.274-4.287-10.007-5.421-16.737-7.263 5.172 14.736 3.259 20.546 3.259 20.546s-7.439-8.29-15.799-9.565c-4.887-0.284-15.09 5.101-20.564 8.714 19.36 10.06 21.486 20.191 21.486 20.191-7.156 0.637-19.696 8.076-19.696 8.076 15.444 2.976 20.617 6.659 20.617 6.659l-8.572 4.96 17.335 1.739c-1.01-0.729-3.214-3.383-3.66-4.894-0.468-1.586-0.282-6.684 1.31-6.996 0.827-0.163 1.418 0.222 1.766 0.74-0.035-0.367-0.05-0.729-0.05-1.088 0-7.582 7.298-12.98 14.864-12.98 7.922 0 17.327 2.781 16.588 10.932 0.348-0.52-0.838 2.232-0.01 2.396 1.59 0.313 1.776 5.41 1.309 6.996-0.471 1.586-2.889 4.455-3.815 5.011-0.44 0.26-0.763 0.313-0.981 0.297-0.13 0.561-0.267 1.044-0.408 1.447l11.791-0.41-5.454-2.621 15.303-4.535L74.902 65.634z" data-fill-palette-color="accent"></path><path fill="#ffffff" d="M50.73 85.646c-0.146 0-0.251-0.004-0.304-0.006-0.052 0.002-0.158 0.006-0.305 0.006-0.876 0-2.528-0.104-3.751-0.781-3.847-2.137-8.516-7.17-8.997-8.082-0.214-0.406-0.416-0.986-0.615-1.764-0.247-0.064-0.504-0.179-0.768-0.332-1.075-0.642-3.618-3.677-4.134-5.418-0.4-1.357-0.409-5.224 0.635-6.947 0.323-0.531 0.732-0.852 1.217-0.947 0.401-0.078 0.793-0.064 1.148 0.035 0.093-3.656 1.806-7.043 4.848-9.564 2.919-2.422 6.827-3.811 10.722-3.811 6.642 0 12.284 1.837 15.095 4.913 1.621 1.772 2.369 3.934 2.228 6.424 0.089 0.231 0.021 0.476-0.075 0.823-0.168 0.604-0.255 1.025-0.263 1.259 0.368 0.146 0.687 0.438 0.948 0.869 1.043 1.721 1.035 5.59 0.637 6.944-0.516 1.744-3.059 4.779-4.133 5.418-0.266 0.156-0.522 0.271-0.771 0.334-0.199 0.777-0.4 1.357-0.613 1.763-0.479 0.911-5.146 5.944-8.998 8.084C53.259 85.542 51.607 85.646 50.73 85.646zM50.428 84.223l0.035 0.002c0.009 0 0.105 0.004 0.268 0.004 0.465 0 2.058-0.043 3.062-0.603 3.664-2.035 8.068-6.834 8.432-7.504 0.135-0.256 0.349-0.795 0.605-1.906l0.136-0.59 0.624 0.043c0.062 0 0.241-0.021 0.549-0.203 0.752-0.446 3.077-3.176 3.498-4.6 0.355-1.205 0.245-4.599-0.49-5.812-0.117-0.197-0.224-0.281-0.275-0.289-0.282-0.057-0.523-0.225-0.676-0.471-0.014-0.021-0.025-0.043-0.037-0.066l-0.096 0.144 0.026-0.297c-0.204-0.568-0.03-1.353 0.196-2.177l0.025-0.289c0.203-2.233-0.414-4.153-1.834-5.707-2.547-2.788-7.799-4.452-14.05-4.452-3.57 0-7.148 1.271-9.817 3.483-2.798 2.32-4.339 5.443-4.339 8.789 0 0.346 0.016 0.688 0.047 1.021l0.258 2.779-1.552-2.318c-0.255-0.381-0.601-0.527-1.04-0.439-0.054 0.01-0.158 0.092-0.278 0.289-0.735 1.215-0.845 4.605-0.488 5.812 0.421 1.424 2.745 4.151 3.499 4.602 0.307 0.183 0.484 0.201 0.547 0.201h0.018l0.605-0.045 0.137 0.592c0.257 1.111 0.471 1.65 0.605 1.906 0.362 0.67 4.77 5.471 8.432 7.504 1.006 0.56 2.599 0.603 3.062 0.603 0.162 0 0.261-0.004 0.27-0.004L50.428 84.223z" data-fill-palette-color="accent"></path><path fill="#ffffff" d="M33.033 61.948l4.038 4.604-0.426-3.684 3.33 3.117c0 0-0.708-4.252 0.142-6.637 1.087-2.314 3.897-3.638 3.897-3.638s-0.328 8.358 0.354 11.902c2.221-4.275 8.998-12.398 12.683-13.816 1.062 4.369-0.425 11.24-1.062 14.522 3.261-3.493 7.511-10.247 7.723-11.688 0 0 0.491 0.252 0.708 0.779 0.372 0.903-0.991 5.881-1.698 7.864 0.99-0.592 2.905-2.055 2.905-2.055l-1.772 3.754c0 0 4.746-3.094 5.242-3.896 1.016-1.438 2.977-12.47 2.977-12.47l-30.039-6.73-11.194 8.432L33.033 61.948z" data-fill-palette-color="accent"></path></svg></g></svg></g></svg></g><defs></defs></svg><rect width="395.52" height="101.20329182327652" fill="none" stroke="none" visibility="hidden"></rect></g></svg></g></svg>